<svg xmlns="http://www.w3.org/2000/svg" xmlns:xlink="http://www.w3.org/1999/xlink" width="96" height="15.216" viewBox="0 0 96 15.216"><defs><clipPath id="a"><rect width="96" height="15.216" fill="none"/></clipPath></defs><g clip-path="url(#a)"><g transform="translate(-296 -1928.784)"><path d="M11,3l2.472,5.008L19,8.816l-4,3.9.944,5.5L11,15.616l-4.944,2.6L7,12.712l-4-3.9,5.528-.808Z" transform="translate(293 1925.784)" fill="#ffcb23"/></g><g transform="translate(-276 -1928.784)"><path d="M11,3l2.472,5.008L19,8.816l-4,3.9.944,5.5L11,15.616l-4.944,2.6L7,12.712l-4-3.9,5.528-.808Z" transform="translate(293 1925.784)" fill="#ffcb23"/></g><g transform="translate(-256 -1928.784)"><path d="M11,3l2.472,5.008L19,8.816l-4,3.9.944,5.5L11,15.616l-4.944,2.6L7,12.712l-4-3.9,5.528-.808Z" transform="translate(293 1925.784)" fill="#ffcb23"/></g><g transform="translate(-236 -1928.784)"><path d="M11,3l2.472,5.008L19,8.816l-4,3.9.944,5.5L11,15.616l-4.944,2.6L7,12.712l-4-3.9,5.528-.808Z" transform="translate(293 1925.784)" fill="#ffcb23"/></g><g transform="translate(-216 -1928.784)"><path d="M11,3l2.472,5.008L19,8.816l-4,3.9.944,5.5L11,15.616l-4.944,2.6L7,12.712l-4-3.9,5.528-.808Z" transform="translate(293 1925.784)" fill="#ffcb23"/></g></g></svg>