<svg xmlns="http://www.w3.org/2000/svg" width="39.364" height="39.355" viewBox="0 0 39.364 39.355"><path d="M19.681,11.825a10.09,10.09,0,1,0,10.09,10.09A10.074,10.074,0,0,0,19.681,11.825Zm0,16.65a6.56,6.56,0,1,1,6.56-6.56,6.572,6.572,0,0,1-6.56,6.56ZM32.538,11.412a2.354,2.354,0,1,1-2.354-2.354A2.348,2.348,0,0,1,32.538,11.412ZM39.22,13.8c-.149-3.153-.869-5.945-3.179-8.246S30.948,2.534,27.8,2.376c-3.249-.184-12.988-.184-16.237,0-3.144.149-5.936.869-8.246,3.17S.291,10.64.133,13.792c-.184,3.249-.184,12.988,0,16.237.149,3.153.869,5.945,3.179,8.246s5.093,3.021,8.246,3.179c3.249.184,12.988.184,16.237,0,3.153-.149,5.945-.869,8.246-3.179s3.021-5.093,3.179-8.246c.184-3.249.184-12.979,0-16.229Zm-4.2,19.715a6.641,6.641,0,0,1-3.741,3.741c-2.591,1.027-8.738.79-11.6.79s-9.019.228-11.6-.79a6.641,6.641,0,0,1-3.741-3.741c-1.027-2.591-.79-8.738-.79-11.6s-.228-9.019.79-11.6A6.641,6.641,0,0,1,8.08,6.574c2.591-1.027,8.738-.79,11.6-.79s9.019-.228,11.6.79a6.641,6.641,0,0,1,3.741,3.741c1.027,2.591.79,8.738.79,11.6S36.05,30.934,35.023,33.516Z" transform="translate(0.005 -2.238)" fill="#fff"/></svg>