<svg xmlns="http://www.w3.org/2000/svg" width="38.82" height="31.589" viewBox="0 0 38.82 31.589"><path d="M40.233,8.243A16.1,16.1,0,0,1,35.659,9.5a7.992,7.992,0,0,0,3.5-4.409A15.825,15.825,0,0,1,34.1,7.025a7.962,7.962,0,0,0-13.779,5.446,7.8,7.8,0,0,0,.206,1.818A22.571,22.571,0,0,1,4.111,5.956,7.98,7.98,0,0,0,6.588,16.6a7.779,7.779,0,0,1-3.62-1v.1A7.971,7.971,0,0,0,9.36,23.519a8.017,8.017,0,0,1-2.1.28,7.514,7.514,0,0,1-1.5-.148,7.977,7.977,0,0,0,7.445,5.536,15.968,15.968,0,0,1-9.9,3.414,16.144,16.144,0,0,1-1.9-.115,22.262,22.262,0,0,0,12.191,3.6c14.667,0,22.68-12.15,22.68-22.688,0-.346-.008-.691-.025-1.028A16.213,16.213,0,0,0,40.233,8.243Z" transform="translate(-1.413 -4.5)" fill="#fff"/></svg>